# AST/ASF file generated using VICON BodyLanguage
# -----------------------------------------------
:version 1.10
:name VICON
:units
  mass 1.0
  length 0.45
  angle deg
:documentation
   .ast/.asf automatically generated from VICON data using
   VICON BodyBuilder and BodyLanguage model FoxedUp or BRILLIANT.MOD
:root
   order TX TY TZ RX RY RZ
   axis XYZ
   position 0 0 0  
   orientation 0 -0 0 
:bonedata
  begin
     id 1 
     name lhipjoint
     direction 0.500677 -0.737119 0.453848 
     length 2.34727 
     axis 0 -0 0  XYZ
  end
  begin
     id 2 
     name lfemur
     direction 0.34202 -0.939693 0  
     length 7.53653  
     axis 0 -0 20  XYZ
    dof rx ry rz
    limits (-160.0 20.0)
           (-70.0 70.0)
           (-60.0 70.0)
  end
  begin
     id 3 
     name ltibia
     direction 0.34202 -0.939693 0   
     length 6.85572   
     axis 0 -0 20   XYZ
    dof rx
    limits (-10.0 170.0)
  end
  begin
     id 4 
     name lfoot
     direction 0.155313 -0.426718 0.890949   
     length 2.18324   
     axis -90 -1.13533e-015 20   XYZ
    dof rx rz
    limits (-45.0 90.0)
           (-70.0 20.0)
  end
  begin
     id 5 
     name ltoes
     direction 1.53474e-011 -4.21647e-011 1   
     length 1.06748   
     axis -90 -1.13533e-015 20   XYZ
    dof rx
    limits (-90.0 20.0)
  end
  begin
     id 6 
     name rhipjoint
     direction -0.632471 -0.659587 0.406111   
     length 2.62319  
     axis 0 -0 0  XYZ 
  end
  begin
     id 7 
     name rfemur
     direction -0.34202 -0.939693 0   
     length 7.21735   
     axis 0 -0 -20   XYZ
    dof rx ry rz
    limits (-160.0 20.0)
           (-70.0 70.0)
           (-70.0 60.0)
  end
  begin
     id 8 
     name rtibia
     direction -0.34202 -0.939693 0   
     length 7.02558   
     axis 0 -0 -20   XYZ
    dof rx
    limits (-10.0 170.0)
 end
 begin
     id 9 
     name rfoot
     direction -0.16057 -0.441164 0.882945   
     length 2.10014  
     axis -90 1.13533e-015 -20   XYZ
    dof rx rz
    limits (-45.0 90.0)
           (-20.0 70.0)
  end
  begin
     id 10 
     name rtoes
     direction -1.53553e-011 -4.2192e-011 1   
     length 1.02554   
     axis -90 1.13533e-015 -20   XYZ
    dof rx
    limits (-90.0 20.0)
  end
  begin
     id 11 
     name lowerback
     direction 0.0401429 0.998861 -0.0258085   
     length 1.80848   
     axis 0 -0 0   XYZ
    dof rx ry rz
    limits (-20.0 45.0)
           (-30.0 30.0)
           (-30.0 30.0)
  end
  begin
     id 12 
     name upperback
     direction -0.0130978 0.999914 -0.000352645   
     length 1.8116   
     axis 0 -0 0   XYZ
    dof rx ry rz
    limits (-20.0 45.0)
           (-30.0 30.0)
           (-30.0 30.0)
  end
  begin
     id 13 
     name thorax
     direction -0.0300198 0.999453 0.0138573   
     length 1.81778   
     axis 0 -0 0   XYZ
    dof rx ry rz
    limits (-20.0 45.0)
           (-30.0 30.0)
           (-30.0 30.0)
  end
  begin
     id 14 
     name lowerneck
     direction -0.0401726 0.999191 -0.00173647   
     length 2.10594   
     axis 0 -0 0   XYZ
    dof rx ry rz
    limits (-20.0 45.0)
           (-30.0 30.0)
           (-30.0 30.0)
  end
  begin
     id 15 
     name upperneck
     direction 0.0119835 0.998501 0.0534085   
     length 2.07325   
     axis 0 -0 0   XYZ
    dof rx ry rz
    limits (-20.0 45.0)
           (-30.0 30.0)
           (-30.0 30.0)
  end
  begin
     id 16
     name head
     direction 0.00628309 0.999826 0.0175921  
     length 2.15096  
     axis 0 -0 0   XYZ
    dof rx ry rz
    limits (-20.0 45.0)
           (-30.0 30.0)
           (-30.0 30.0)
  end
  begin
     id 17 
     name lclavicle
     direction 0.895501 0.429681 -0.115981  
     length 4.18092  
     axis 0 -0 0   XYZ
    dof ry rz
    limits (-20.0 10.0)
           (0.0 20.0)
  end
  begin
     id 18 
     name lhumerus
     direction 1 -4.48961e-011 -3.38433e-028   
     length 5.77237   
     axis 180 -30 -90   XYZ
    dof rx ry rz
    limits (-60.0 90.0)
           (-90.0 90.0)
           (-90.0 90.0)
  end
  begin
     id 19
     name lradius
     direction 1 -4.4901e-011 1.11983e-026   
     length 2.91878   
     axis 180 -30 -90   XYZ
    dof rx
    limits (-10.0 170.0)
  end
  begin
     id 20
     name lwrist
     direction 1 -4.48934e-011 1.88176e-026   
     length 1.45939   
     axis -1.23311e-014 90 90   XYZ
    dof ry
    limits (-180.0 0.0)
 end
  begin
     id 21 
     name lhand
     direction 1 -4.4895e-011 3.76352e-026   
     length 1.06566   
     axis -2.40147e-014 90 90   XYZ
    dof rx rz
    limits (-90.0 90.0)
           (-45.0 45.0)
  end
  begin
     id 22 
     name lfingers
     direction 1 -4.49005e-011 7.52705e-026   
     length 0.859162   
     axis -4.80295e-014 90 90   XYZ
    dof rx
    limits (0.0 90.0)
  end
  begin
     id 23
     name lthumb
     direction 0.707107 -6.34885e-011 0.707107   
     length 1.23359   
     axis -90 45 -9.86935e-015   XYZ
    dof rx rz
    limits (-45.0 45.0)
           (-45.0 45.0)
  end
  begin
     id 24 
     name rclavicle
     direction -0.91006 0.40451 -0.0903492   
     length 4.23293  
     axis 0 -0 0   XYZ 
    dof ry rz
    limits (-10.0 20.0)
           (-20.0 0.0)
  end
  begin
     id 25 
     name rhumerus
     direction -1 -4.4897e-011 1.7415e-027  
     length 5.49854   
     axis 180 30 90   XYZ
    dof rx ry rz
    limits (-90.0 60.0)
           (-90.0 90.0)
           (-90.0 90.0)
  end
  begin
     id 26 
     name rradius
     direction -1 -4.48963e-011 1.21259e-026   
     length 3.1186   
     axis 180 30 90   XYZ
    dof rx
    limits (-10.0 170.0)
  end
  begin
     id 27 
     name rwrist
     direction -1 -4.48967e-011 1.88176e-026   
     length 1.5593   
     axis -1.23311e-014 -90 -90   XYZ
    dof ry
    limits (-180.0 0.0)
  end
  begin
     id 28
     name rhand
     direction -1 -4.4895e-011 3.76352e-026   
     length 0.71207   
     axis -2.40147e-014 -90 -90   XYZ
    dof rx rz
    limits (-90.0 90.0)
           (-45.0 45.0)
  end
  begin
     id 29
     name rfingers
     direction -1 -4.49005e-011 7.52705e-026   
     length 0.574089   
     axis -4.80295e-014 -90 -90   XYZ
    dof rx
    limits (0.0 90.0)
  end
  begin
     id 30
     name rthumb
     direction -0.707107 -6.34982e-011 0.707107   
     length 0.824281   
     axis -90 -45 9.86935e-015   XYZ
    dof rx rz
    limits (-45.0 45.0)
           (-45.0 45.0)
  end
:hierarchy
  begin
    root lhipjoint rhipjoint lowerback
    lhipjoint lfemur
    lfemur ltibia
    ltibia lfoot
    lfoot ltoes
    rhipjoint rfemur
    rfemur rtibia
    rtibia rfoot
    rfoot rtoes
    lowerback upperback
    upperback thorax
    thorax lowerneck lclavicle rclavicle
    lowerneck upperneck
    upperneck head
    lclavicle lhumerus
    lhumerus lradius
    lradius lwrist
    lwrist lhand lthumb
    lhand lfingers
    rclavicle rhumerus
    rhumerus rradius
    rradius rwrist
    rwrist rhand rthumb
    rhand rfingers
  end

#!OML:ASF C:\ViconDB\ViconDB\414\Spring2016\042216\male.ASF
:FULLY-SPECIFIED
:DEGREES
677
root 31.1235 17.2514 -1.37796 -540.138 24.8297 -180.926
lowerback -2.7049 -2.20228 1.04661
upperback -0.577049 -2.93866 -1.08504
thorax 0.813302 -1.46018 -1.79351
lowerneck -3.22313 0.841172 -7.47051
upperneck 5.15637 1.22907 6.145
head 2.15368 0.641442 3.38895
rclavicle 8.37132e-014 1.98785e-015
rhumerus -30.287 -2.73022 -96.0871
rradius 29.5779
rwrist 23.1178
rhand 7.36602 -23.8138
rfingers 7.12502
rthumb 32.624 -50.8926
lclavicle 8.37132e-014 1.98785e-015
lhumerus -37.9558 11.8337 89.3688
lradius 34.1978
lwrist -4.8558
lhand -12.7756 17.7301
lfingers 7.12502
lthumb 13.3095 47.2851
rfemur -8.04308 7.6932 21.6246
rtibia 30.463
rfoot -22.712 -2.83469
rtoes -10.7972
lfemur -5.15429 -4.78947 -23.581
ltibia 29.3903
lfoot -30.9701 17.3236
ltoes -12.1311
678
root 31.1215 17.2539 -1.36702 -540.04 24.8981 -180.864
lowerback -2.79073 -2.20231 1.15876
upperback -0.565506 -2.9423 -1.09868
thorax 0.866605 -1.46124 -1.87429
lowerneck -3.18696 0.835139 -7.46834
upperneck 5.10231 1.2173 6.19154
head 2.13003 0.636609 3.40288
rclavicle -2.71093e-014 3.57812e-015
rhumerus -30.216 -2.11908 -95.9602
rradius 29.6032
rwrist 22.9652
rhand 7.47436 -23.8302
rfingers 7.12502
rthumb 32.7271 -50.8876
lclavicle -2.71093e-014 3.57812e-015
lhumerus -37.9975 11.9292 88.9347
lradius 34.3065
lwrist -5.20482
lhand -12.8241 17.4841
lfingers 7.12502
lthumb 13.2628 47.0421
rfemur -8.16979 7.48552 21.6347
rtibia 30.4424
rfoot -22.7233 -2.52535
rtoes -10.8424
lfemur -5.27596 -4.84265 -23.5135
ltibia 29.429
lfoot -30.9675 17.4366
ltoes -12.4246
679
root 31.119 17.2551 -1.35664 -539.964 24.9377 -180.777
lowerback -2.86717 -2.20502 1.32698
upperback -0.536749 -2.95161 -1.12124
thorax 0.928733 -1.46488 -1.99581
lowerneck -2.9822 0.745539 -7.51316
upperneck 4.88461 1.08687 6.26373
head 2.03048 0.570623 3.42656
rclavicle -3.49613e-014 1.39149e-015
rhumerus -30.1845 -2.43437 -95.5274
rradius 29.5917
rwrist 23.9206
rhand 7.93395 -23.3182
rfingers 7.12502
rthumb 33.1642 -50.2836
lclavicle -3.49613e-014 1.39149e-015
lhumerus -37.9902 11.9613 88.5235
lradius 34.3382
lwrist -5.72126
lhand -12.929 17.1649
lfingers 7.12502
lthumb 13.1617 46.7295
rfemur -8.25162 7.1541 21.6646
rtibia 30.4084
rfoot -22.7482 -2.13589
rtoes -10.8666
lfemur -5.36102 -4.88318 -23.4261
ltibia 29.4623
lfoot -30.9614 17.5208
ltoes -11.71
680
root 31.1173 17.2571 -1.34558 -539.933 24.9771 -180.82
lowerback -2.93447 -2.2073 1.34655
upperback -0.504295 -2.95483 -1.17595
thorax 0.995619 -1.46533 -2.06679
lowerneck -3.06462 0.781307 -7.4196
upperneck 4.90474 1.13528 6.25797
head 2.04831 0.59739 3.40916
rclavicle 4.30617e-014 -3.97569e-016
rhumerus -30.1115 -2.32062 -95.2648
rradius 29.6163
rwrist 24.4806
rhand 8.29769 -23.2521
rfingers 7.12502
rthumb 33.51 -50.1433
lclavicle 4.30617e-014 -3.97569e-016
lhumerus -38.0661 11.5974 88.2035
lradius 34.4817
lwrist -6.455
lhand -12.2393 16.8711
lfingers 7.12502
lthumb 13.8264 46.3916
rfemur -8.3368 6.82974 21.5524
rtibia 30.3524
rfoot -22.7473 -1.69655
rtoes -10.7872
lfemur -5.47358 -4.82409 -23.4574
ltibia 29.5115
lfoot -30.955 17.5327
ltoes -11.9704
681
root 31.1147 17.2582 -1.33461 -539.905 25.0556 -180.845
lowerback -2.96661 -2.18461 1.3762
upperback -0.499818 -2.9256 -1.18583
thorax 1.0175 -1.45033 -2.09406
lowerneck -2.86727 0.681538 -7.45061
upperneck 4.70597 0.994945 6.23668
head 1.95717 0.524133 3.39812
rclavicle 5.18455e-014 6.95746e-015
rhumerus -30.0227 -2.29634 -94.8988
rradius 29.4204
rwrist 24.9979
rhand 8.29605 -22.9688
rfingers 7.12502
rthumb 33.5085 -49.8603
lclavicle 5.18455e-014 6.95746e-015
lhumerus -38.0504 11.173 88.1171
lradius 34.4531
lwrist -6.38778
lhand -12.1918 16.697
lfingers 7.12502
lthumb 13.8722 46.2144
rfemur -8.43319 6.39039 21.433
rtibia 30.3019
rfoot -22.7202 -1.06034
rtoes -10.5641
lfemur -5.56891 -4.81521 -23.4825
ltibia 29.5587
lfoot -30.957 17.6091
ltoes -11.8779
682
root 31.1097 17.2589 -1.32132 -539.86 25.1017 -180.742
lowerback -2.88982 -2.22584 1.49184
upperback -0.51498 -2.98442 -1.1618
thorax 0.951655 -1.48058 -2.1321
lowerneck -2.72255 0.648853 -7.42788
upperneck 4.61114 0.944809 6.19009
head 1.90302 0.496913 3.37267
rclavicle 4.27139e-014 -3.97569e-016
rhumerus -30.0022 -1.75855 -94.7347
rradius 29.3279
rwrist 24.9567
rhand 8.37919 -22.9405
rfingers 7.12502
rthumb 33.5875 -49.8149
lclavicle 4.27139e-014 -3.97569e-016
lhumerus -38.0445 11.2572 87.7318
lradius 34.1683
lwrist -6.5575
lhand -12.2559 15.9552
lfingers 7.12502
lthumb 13.8104 45.4767
rfemur -8.49901 5.93384 21.4504
rtibia 30.2604
rfoot -22.6788 -0.445467
rtoes -10.6347
lfemur -5.63126 -4.88168 -23.3878
ltibia 29.5908
lfoot -30.9591 17.7577
ltoes -11.3978
683
root 31.1056 17.2585 -1.30816 -539.889 25.1529 -180.726
lowerback -2.75303 -2.26546 1.50654
upperback -0.544438 -3.03718 -1.12559
thorax 0.843635 -1.50862 -2.0978
lowerneck -2.62195 0.649495 -7.50097
upperneck 4.58931 0.942791 6.19676
head 1.87779 0.493644 3.38725
rclavicle 8.27628e-014 3.97569e-016
rhumerus -29.9801 -1.84819 -94.3142
rradius 29.1139
rwrist 25.5763
rhand 8.41809 -22.7219
rfingers 7.12502
rthumb 33.6245 -49.5883
lclavicle 8.27628e-014 3.97569e-016
lhumerus -38.2638 11.1029 87.5816
lradius 34.5097
lwrist -6.39132
lhand -12.1511 16.105
lfingers 7.12502
lthumb 13.9114 45.6196
rfemur -8.51828 5.54102 21.3871
rtibia 30.2265
rfoot -22.6916 0.145054
rtoes -10.4471
lfemur -5.64446 -4.85546 -23.3699
ltibia 29.615
lfoot -30.9466 17.8092
ltoes -11.8745
684
root 31.1023 17.26 -1.29284 -539.896 25.2452 -180.784
lowerback -2.64853 -2.27003 1.43929
upperback -0.588234 -3.04035 -1.10056
thorax 0.745024 -1.51166 -2.02871
lowerneck -2.71712 0.706049 -7.48053
upperneck 4.78474 1.02351 6.13261
head 1.95324 0.533629 3.36722
rclavicle 2.1329e-014 -1.2921e-015
rhumerus -29.9885 -1.60906 -93.9829
rradius 29.0385
rwrist 25.5667
rhand 8.56086 -22.7713
rfingers 7.12502
rthumb 33.7601 -49.608
lclavicle 2.1329e-014 -1.2921e-015
lhumerus -38.2999 10.8928 87.5154
lradius 34.4615
lwrist -5.8268
lhand -12.3563 16.1864
lfingers 7.12502
lthumb 13.7136 45.7145
rfemur -8.5979 5.48635 21.2754
rtibia 30.188
rfoot -22.727 0.474547
rtoes -10.2656
lfemur -5.73125 -4.89121 -23.43
ltibia 29.6474
lfoot -30.9144 17.9383
ltoes -11.8686
685
root 31.0982 17.2625 -1.27762 -539.848 25.3125 -180.819
lowerback -2.58954 -2.28339 1.41453
upperback -0.644877 -3.05629 -1.09366
thorax 0.654923 -1.52074 -2.00396
lowerneck -2.51548 0.629933 -7.48404
upperneck 4.68106 0.913151 6.08039
head 1.89045 0.475273 3.34281
rclavicle 1.23684e-013 1.86858e-014
rhumerus -29.9118 -1.58303 -93.6845
rradius 28.8348
rwrist 25.5829
rhand 8.52655 -23.1633
rfingers 7.12502
rthumb 33.7275 -50.0071
lclavicle 1.23684e-013 1.86858e-014
lhumerus -38.3548 10.8565 87.3094
lradius 34.3994
lwrist -5.78749
lhand -12.5061 16.4397
lfingers 7.12502
lthumb 13.5692 45.9776
rfemur -8.7419 5.35719 21.1842
rtibia 30.1721
rfoot -22.6966 0.856112
rtoes -10.3175
lfemur -5.85563 -4.93497 -23.4599
ltibia 29.6611
lfoot -30.8549 18.071
ltoes -11.6673
